<svg id="Capa_1" enable-background="new 0 0 497.184 497.184" height="512" viewBox="0 0 497.184 497.184" width="512" xmlns="http://www.w3.org/2000/svg"><g><path d="m257.527 497.184h-17.45c-4.886 0-8.847-3.961-8.847-8.847v-125.244h35.144v125.244c0 4.886-3.961 8.847-8.847 8.847z" fill="#97da7b"/><g><path d="m208.127 190.24h94.323l76.963-40.47c.8-5.86 1.22-11.85 1.22-17.94-.001-72.81-59.021-131.83-131.831-131.83s-131.83 59.02-131.83 131.83c0 6.06.42 12.02 1.21 17.86z" fill="#f9f7f8"/><g><path d="m380.632 131.83c0-.732-.016-1.461-.028-2.191-11.168.679-21.903 2.985-31.972 6.682-9.168 3.366-19.384 1.197-26.766-5.197-20.922-18.121-46.28-27.91-73.064-27.91-9.344 0-21.463 3.711-33.371 8.591-15.706 6.436-30.758-10.521-22.642-25.428 18.917-34.743 48.365-76.619 82.692-83.674-8.615-1.771-17.538-2.703-26.679-2.703-72.81 0-131.83 59.02-131.83 131.83 0 5.774.392 11.454 1.112 17.03l15.023 26.021c5.003-2.412 8.178-3.682 8.178-3.682h225.248l13.03-21.439c-.05.004-.101.005-.151.01.8-5.86 1.22-11.85 1.22-17.94z" fill="#efedef"/></g><circle cx="387.552" cy="242.7" fill="#f9f7f8" r="93.279"/><circle cx="109.632" cy="242.7" fill="#f9f7f8" r="93.279"/><g fill="#efedef"><path d="m62.423 242.7c0-43.566 29.878-80.155 70.254-90.411-7.368-1.872-15.095-2.869-23.045-2.869-51.517 0-93.279 41.763-93.279 93.28s41.762 93.279 93.279 93.279c7.95 0 15.667-.998 23.035-2.87-40.376-10.255-70.244-46.843-70.244-90.409z"/><path d="m151.333 159.245c-15.715 24.08-24.233 53.278-24.233 83.908 0 30.339 8.357 59.273 23.788 83.221 30.821-15.226 52.022-46.972 52.022-83.675.001-36.526-20.997-68.143-51.577-83.454z"/><path d="m294.273 242.7c0 36.829 21.346 68.668 52.34 83.833 15.496-23.978 23.891-52.973 23.891-83.379 0-30.697-8.554-59.956-24.335-84.066-30.753 15.249-51.896 46.959-51.896 83.612z"/></g><ellipse cx="248.802" cy="243.153" fill="#f9f7f8" rx="101.702" ry="119.939"/><g id="XMLID_757_"><g><path d="m276.842 386.06v7.94c0 5.777-4.683 10.46-10.46 10.46h-35.15c-5.782 0-10.47-4.688-10.47-10.47v-7.93h-18.69c-26.52 0-52.23-9.23-72.7-26.1l-12.27-10.12c-3.91-3.22-8.82-4.98-13.89-4.98h-29.078c-1.709 0-2.614-2.022-1.474-3.296l8.122-9.084c9.06-10.13 22.01-15.92 35.61-15.92h23.96c6.89 0 12.31-5.83 11.88-12.71-.89-14.3-5.17-28.57-11.94-42.82-1.95-4.09 2.63-8.27 6.51-5.93 18.07 10.9 35.12 32.72 51.6 55.89 5.8 8.16 13.4 14.66 22.04 19.13 8.65 4.46 18.35 6.89 28.36 6.89 20.02 0 38.8-9.71 50.4-26.02 16.48-23.17 33.53-44.99 51.6-55.89 3.88-2.34 8.46 1.84 6.51 5.93-6.77 14.25-11.05 28.52-11.94 42.82-.43 6.88 4.99 12.71 11.88 12.71h23.96c13.6 0 26.55 5.79 35.61 15.92l7.283 8.145c1.464 1.637.302 4.235-1.895 4.235h-27.818c-5.07 0-9.98 1.76-13.89 4.98l-12.27 10.12c-20.47 16.87-46.18 26.1-72.7 26.1z" fill="#80d261"/></g></g><g><path d="m251.93 391.889c-5.984 0-10.839-4.979-10.839-11.127 0-4.665-3.782-8.446-8.446-8.446h-10.902c-27.455 0-54.071-9.819-75.262-27.765l-12.702-10.765c-4.048-3.425-9.131-5.297-14.38-5.297h-34.577c-1.415 1.246-2.769 2.571-4.04 3.992l-8.162 9.128c-1.124 1.257-.232 3.252 1.455 3.252h29.137c5.07 0 9.98 1.76 13.89 4.98l12.27 10.12c20.47 16.87 46.18 26.1 72.7 26.1h16.342c1.297 0 2.348 1.051 2.348 2.348v5.591c0 5.777 4.683 10.46 10.46 10.46h35.15c5.782 0 10.47-4.688 10.47-10.47v-2.101z" fill="#68ca44"/></g></g></g></svg>